<?xml version="1.0" encoding="UTF-8" standalone="no"?>
<svg
   xmlns:dc="http://purl.org/dc/elements/1.1/"
   xmlns:cc="http://creativecommons.org/ns#"
   xmlns:rdf="http://www.w3.org/1999/02/22-rdf-syntax-ns#"
   xmlns:svg="http://www.w3.org/2000/svg"
   xmlns="http://www.w3.org/2000/svg"
   viewBox="0 0 1731.3507 243.5675"
   height="243.5675"
   width="1731.3507"
   xml:space="preserve"
   version="1.1"
   id="svg2"><metadata
     id="metadata8"><rdf:RDF><cc:Work
         rdf:about=""><dc:format>image/svg+xml</dc:format><dc:type
           rdf:resource="http://purl.org/dc/dcmitype/StillImage" /><dc:title></dc:title></cc:Work></rdf:RDF></metadata><defs
     id="defs6"><clipPath
       id="clipPath16"
       clipPathUnits="userSpaceOnUse"><path
         id="path18"
         d="M 0,672 2076,672 2076,0 0,0 0,672 Z" /></clipPath></defs><g
     transform="matrix(1.25,0,0,-1.25,-385.22819,546.08487)"
     id="g10"><g
       id="g12"><g
         clip-path="url(#clipPath16)"
         id="g14"><g
           transform="translate(400.8062,255.6309)"
           id="g20"><path
             id="path22"
             style="fill:#231f20;fill-opacity:1;fill-rule:nonzero;stroke:none"
             d="m 0,0 c -9.64,-9.049 -21.153,-13.617 -36.91,-13.617 -21.452,0 -32.679,8.521 -41.522,18.992 -15.279,18.233 -14.174,52.437 -14.174,78.102 0,25.767 -1.105,60.513 14.174,78.751 8.843,10.459 20.07,19.009 41.522,19.009 15.757,0 27.27,-4.517 36.91,-13.658 9.89,-9.386 16.043,-24.367 16.874,-42.578 l -38.027,0 c -0.257,5.425 -0.819,10.737 -2.947,14.772 -2.14,4.541 -5.879,7.239 -12.81,7.239 -6.967,0 -10.481,-3.269 -12.616,-7.544 -4.57,-8.809 -5.079,-32.633 -5.079,-55.655 0,-23.033 0.509,-46.842 5.079,-55.646 2.135,-4.372 5.649,-7.585 12.616,-7.585 6.931,0 10.93,3.026 13.079,7.585 2.128,3.919 2.678,9.347 2.954,14.664 l 38.015,0 C 16.319,24.65 9.89,9.405 0,0" /></g><g
           transform="translate(511.3311,378.7993)"
           id="g24"><path
             id="path26"
             style="fill:#231f20;fill-opacity:1;fill-rule:nonzero;stroke:none"
             d="m 0,0 -14.686,-70.693 29.473,0 L 0,0 Z m 28.142,-134.691 -6.169,29.722 -43.856,0 -6.182,-29.722 -39.627,0 48.964,190.612 37.523,0 48.969,-190.612 -39.622,0 z" /></g><g
           transform="translate(665.5581,327.6602)"
           id="g28"><path
             id="path30"
             style="fill:#231f20;fill-opacity:1;fill-rule:nonzero;stroke:none"
             d="m 0,0 -12.025,0 0,-49.291 12.025,0 c 15.286,0 19.53,7.258 19.53,24.65 C 19.53,-7.257 14.758,0 0,0 m -0.567,72.807 -11.458,0 0,-40.708 11.458,0 c 15.034,0 20.097,6.163 20.097,20.346 0,14.497 -4.772,20.362 -20.097,20.362 M 44.687,-70.919 C 36.68,-79.253 24.112,-83.552 5.082,-83.552 l -55.101,0 0,190.613 55.101,0 c 19.03,0 31.598,-4.253 39.891,-12.311 9.088,-8.859 12.591,-22.789 12.591,-40.931 0,-12.301 -1.066,-22.762 -9.133,-30.808 -2.409,-2.406 -5.082,-4.505 -8.809,-6.436 3.521,-1.842 6.4,-4.229 8.554,-6.7 8.86,-9.875 9.388,-24.092 9.388,-34.775 0,-20.644 -3.244,-36.149 -12.877,-46.019" /></g><g
           transform="translate(824.8428,378.7993)"
           id="g32"><path
             id="path34"
             style="fill:#231f20;fill-opacity:1;fill-rule:nonzero;stroke:none"
             d="m 0,0 -14.741,-70.693 29.497,0 L 0,0 Z m 28.133,-134.691 -6.182,29.722 -43.916,0 -6.132,-29.722 -39.621,0 48.976,190.612 37.477,0 48.986,-190.612 -39.588,0 z" /></g><g
           transform="translate(934.0684,244.1084)"
           id="g36"><path
             id="path38"
             style="fill:#231f20;fill-opacity:1;fill-rule:nonzero;stroke:none"
             d="m 0,0 0,63.206 -12.037,-9.357 0,34.223 12.037,9.399 0,93.141 38.013,0 0,-63.693 24.862,19.268 0,-34.28 -24.862,-19.257 0,-58.389 49.788,0 L 87.801,0 0,0 Z" /></g><g
           transform="translate(1068.1772,244.1084)"
           id="g40"><path
             id="path42"
             style="fill:#231f20;fill-opacity:1;fill-rule:nonzero;stroke:none"
             d="m 0,0 0,63.206 -12.02,-9.357 0,34.223 12.02,9.399 0,93.141 38.034,0 0,-63.693 24.874,19.268 0,-34.28 -24.874,-19.257 0,-58.389 49.788,0 L 87.822,0 0,0 Z" /></g><g
           transform="translate(1197.228,244.1084)"
           id="g44"><path
             id="path46"
             style="fill:#231f20;fill-opacity:1;fill-rule:nonzero;stroke:none"
             d="m 0,0 0,190.612 87.822,0 0,-34.254 -49.817,0 0,-43.102 42.833,0 0,-34.286 -42.833,0 0,-44.709 49.817,0 L 87.822,0 0,0 Z" /></g><g
           transform="translate(1382.4844,400.4668)"
           id="g48"><path
             id="path50"
             style="fill:#231f20;fill-opacity:1;fill-rule:nonzero;stroke:none"
             d="m 0,0 -16.046,0 0,-47.876 16.046,0 c 14.438,0 15.229,13.086 15.229,24.062 C 15.229,-12.873 14.438,0 0,0 m 19.799,-156.358 -23.325,74.151 -12.52,0 0,-74.151 -38.051,0 0,190.612 54.331,0 c 41.487,0 52.999,-21.691 52.999,-58.068 0,-20.371 -3.198,-38.518 -21.652,-50.073 l 27.794,-82.471 -39.576,0 z" /></g><path
           id="path52"
           style="fill:#231f20;fill-opacity:1;fill-rule:nonzero;stroke:none"
           d="m 1483.402,434.721 37.981,0 0,-190.612 -37.981,0 0,190.612 z" /><g
           transform="translate(1625.5781,378.7993)"
           id="g54"><path
             id="path56"
             style="fill:#231f20;fill-opacity:1;fill-rule:nonzero;stroke:none"
             d="m 0,0 -14.794,-70.693 29.494,0 L 0,0 Z m 28.051,-134.691 -6.129,29.722 -43.924,0 -6.129,-29.722 -39.64,0 49.026,190.612 37.398,0 49.032,-190.612 -39.634,0 z" /></g></g></g></g></svg>