<?xml version="1.0" encoding="UTF-8" standalone="no"?>
<svg
   xmlns:dc="http://purl.org/dc/elements/1.1/"
   xmlns:cc="http://creativecommons.org/ns#"
   xmlns:rdf="http://www.w3.org/1999/02/22-rdf-syntax-ns#"
   xmlns:svg="http://www.w3.org/2000/svg"
   xmlns="http://www.w3.org/2000/svg"
   viewBox="0 0 1046.3888 601.99127"
   height="601.99127"
   width="1046.3888"
   xml:space="preserve"
   version="1.1"
   id="svg2"><metadata
     id="metadata8"><rdf:RDF><cc:Work
         rdf:about=""><dc:format>image/svg+xml</dc:format><dc:type
           rdf:resource="http://purl.org/dc/dcmitype/StillImage" /><dc:title></dc:title></cc:Work></rdf:RDF></metadata><defs
     id="defs6"><clipPath
       id="clipPath16"
       clipPathUnits="userSpaceOnUse"><path
         id="path18"
         d="m 0,481.593 837.111,0 L 837.111,0 0,0 0,481.593 Z" /></clipPath></defs><g
     transform="matrix(1.25,0,0,-1.25,0,601.99125)"
     id="g10"><g
       id="g12"><g
         clip-path="url(#clipPath16)"
         id="g14"><g
           transform="translate(674.25,310.168)"
           id="g20"><path
             id="path22"
             style="fill:#231f20;fill-opacity:1;fill-rule:nonzero;stroke:none"
             d="m 0,0 c 8.361,0 15.141,6.779 15.141,15.141 0,8.363 -6.78,15.141 -15.141,15.141 -8.361,0 -15.141,-6.778 -15.141,-15.141 C -15.141,6.779 -8.361,0 0,0" /></g><g
           transform="translate(807.6035,201.8711)"
           id="g24"><path
             id="path26"
             style="fill:#231f20;fill-opacity:1;fill-rule:nonzero;stroke:none"
             d="m 0,0 c -0.616,-1.11 -1.481,-1.975 -2.596,-2.594 -1.112,-0.621 -2.274,-0.93 -3.485,-0.93 -1.209,0 -2.372,0.309 -3.486,0.93 -1.113,0.619 -1.98,1.484 -2.601,2.594 -0.62,1.111 -0.93,2.271 -0.93,3.481 0,1.217 0.316,2.389 0.948,3.514 0.63,1.125 1.505,1.989 2.622,2.596 1.118,0.604 2.266,0.907 3.447,0.907 1.173,0 2.321,-0.303 3.441,-0.907 C -1.519,8.984 -0.644,8.12 -0.017,6.995 0.611,5.87 0.925,4.698 0.925,3.481 0.925,2.271 0.616,1.111 0,0 m 1.191,7.697 c -0.749,1.347 -1.796,2.383 -3.139,3.107 -1.345,0.723 -2.723,1.085 -4.133,1.085 -1.41,0 -2.787,-0.362 -4.132,-1.085 -1.344,-0.724 -2.392,-1.76 -3.145,-3.107 -0.755,-1.349 -1.132,-2.754 -1.132,-4.216 0,-1.448 0.371,-2.84 1.114,-4.177 0.742,-1.337 1.78,-2.374 3.113,-3.113 1.333,-0.739 2.727,-1.108 4.182,-1.108 1.455,0 2.85,0.369 4.182,1.108 1.334,0.739 2.37,1.776 3.108,3.113 0.739,1.337 1.107,2.729 1.107,4.177 0,1.462 -0.374,2.867 -1.125,4.216" /></g><g
           transform="translate(89.9922,223.4316)"
           id="g28"><path
             id="path30"
             style="fill:#231f20;fill-opacity:1;fill-rule:nonzero;stroke:none"
             d="m 0,0 c 10.561,4.42 21.167,12.335 21.42,25.232 0.389,19.853 -0.144,63.865 -0.201,68.429 9.4,-1.542 19.1,-4.989 28.548,-10.913 C 87.768,58.92 89,4.281 74.005,-12.15 59.01,-28.585 32.101,-16.261 21.625,-9.481 17.226,-6.634 9.313,-2.557 0,0 m 47.712,-35.773 c 24.033,5.34 54.229,26.086 58.953,60.8 4.726,34.715 -16.432,89.766 -79.494,95.928 -54.639,4.725 -85.246,-26.087 -84.629,-51.97 1.643,-19.924 10.476,-27.113 23.622,-31.838 0,0 -16.638,14.584 -6.574,33.893 7.525,14.434 32.954,27.146 61.189,22.69 L 1.084,79.462 c 0,0 -7.806,-7.805 -7.806,-18.898 0,-11.091 0.617,-48.271 0.617,-48.271 0,0 -0.167,-5.571 -3.039,-10.417 -10.648,1.413 -22.13,0.112 -31.881,-7.249 -6.985,-5.751 -10.682,-16.843 -10.888,-23.417 4.725,7.806 15.406,19.103 35.537,8.833 20.13,-10.271 40.055,-21.157 64.088,-15.816" /></g><g
           transform="translate(634.7959,218.291)"
           id="g32"><path
             id="path34"
             style="fill:#231f20;fill-opacity:1;fill-rule:nonzero;stroke:none"
             d="m 0,0 c 0,12.702 -0.081,87.278 -0.081,87.278 0,0 -0.245,25.076 1.139,28.903 -1.871,3.419 -2.975,4.239 -2.975,4.239 0,0 -21.195,-6.555 -36.262,-6.555 l 0.171,-5.618 c 0,0 12.087,1.872 12.427,-13.194 l 0.017,-96.274 c 0,0 0.977,-9.443 -11.561,-10.908 l 0.081,-5.05 48.606,-0.08 -0.083,4.723 C 11.479,-12.536 0,-12.7 0,0" /></g><g
           transform="translate(801.0664,205.7979)"
           id="g36"><path
             id="path38"
             style="fill:#231f20;fill-opacity:1;fill-rule:nonzero;stroke:none"
             d="m 0,0 -1.771,0 0,2.729 1.66,0 C 0.602,2.729 1.09,2.677 1.354,2.573 1.616,2.468 1.823,2.311 1.972,2.099 2.119,1.888 2.194,1.647 2.194,1.381 2.194,0.965 2.04,0.632 1.731,0.378 1.423,0.126 0.847,0 0,0 m 1.927,-1.526 c -0.193,0.185 -0.449,0.345 -0.769,0.478 0.779,0.061 1.405,0.335 1.877,0.824 0.471,0.492 0.707,1.066 0.707,1.727 0,0.468 -0.141,0.91 -0.423,1.325 C 3.036,3.244 2.658,3.536 2.182,3.703 1.707,3.869 0.939,3.953 -0.123,3.953 l -3.106,0 0,-9.043 1.458,0 0,3.842 0.858,0 c 0.512,0 0.901,-0.104 1.169,-0.312 0.386,-0.283 0.895,-0.984 1.526,-2.104 l 0.801,-1.426 1.783,0 -1.103,1.771 c -0.527,0.838 -0.972,1.436 -1.336,1.793" /></g><g
           transform="translate(284.3384,143.3369)"
           id="g40"><path
             id="path42"
             style="fill:#231f20;fill-opacity:1;fill-rule:nonzero;stroke:none"
             d="m 0,0 c -3.75,-1.751 -8.365,-3.92 -13.64,-6.398 -1.514,-0.711 -3.069,-1.442 -4.66,-2.19 -9.694,4.276 -19.969,8.834 -27.214,12.055 11.949,5.611 22.098,10.414 25.058,11.816 C -12.484,11.11 -5.667,5.776 0,0 m 16.087,-22.797 c -0.008,-0.005 -0.016,-0.008 -0.026,-0.012 -3.565,1.095 -6.765,2.256 -9.349,3.333 -4.111,1.714 -12.82,5.518 -22.444,9.755 1.013,0.478 2.013,0.948 2.992,1.408 5.584,2.623 10.427,4.898 14.284,6.699 6.46,-6.933 11.307,-14.392 14.543,-21.183 M 39.011,8.57 c 8.829,0.333 20.426,-0.973 25.533,-9.091 1.648,-2.621 2.66,-5.228 3.041,-7.807 0.048,-1.177 0.009,-2.554 -0.221,-4.022 -8.087,1.133 -17.919,0.232 -29.271,-2.696 -3.678,-0.738 -8.205,-2.198 -13.338,-4.178 -3.086,8.045 -7.753,15.399 -13.797,21.816 8.7,3.398 19.102,5.64 28.053,5.978 m 48.415,-37.035 0.009,-0.019 c 0.019,-0.041 0.898,-2.018 1.346,-4.995 0.005,-3.209 -0.663,-11.403 -7.187,-16.245 -8.136,-6.038 -26.454,-11.58 -53.644,-6.25 0.364,2.067 0.654,4.211 0.855,6.436 0.461,5.101 0.377,10.078 -0.217,14.893 8.592,-1.344 16.959,-1.131 24.562,1.929 9.861,3.969 14.933,11.013 16.317,17.86 8.78,-1.788 14.823,-6.363 17.959,-13.609 m -61.948,7.255 c 5.043,1.947 9.477,3.378 13.06,4.094 l 0.056,0.014 c 11.024,2.844 20.534,3.741 28.319,2.677 -1.095,-3.91 -3.752,-8.085 -9.712,-10.681 -8,-3.487 -19.668,-2.709 -30.379,-0.478 -0.399,1.477 -0.845,2.937 -1.344,4.374 m -4.072,-33.307 c -15.307,3.627 -29.062,8.107 -40.642,12.462 9.173,4.602 18.307,9.134 26.756,13.07 4.088,-1.436 8.223,-2.757 12.348,-3.825 1.626,-6.058 2.361,-13.634 1.538,-21.707 m -35.042,-49.436 c -7.244,-3.067 -15.458,-5.263 -24.629,-6.573 -13.139,-1.876 -27.751,-0.315 -39.086,4.179 -9.159,3.632 -20.624,10.834 -23.224,24.524 -0.851,4.474 -0.84,8.572 0.023,12.277 1.271,-0.219 2.56,-0.395 3.865,-0.527 1.914,-0.194 3.835,-0.289 5.757,-0.289 7.834,0 15.667,1.597 22.946,4.709 3.433,1.466 7.076,3.115 10.887,4.898 1.485,-1.924 2.328,-3.672 2.68,-4.626 1.152,-3.117 0.949,-10.979 -4.607,-11.452 -2.332,-0.225 -2.914,0.976 -3.1,1.949 0,0 0.051,1.531 -1.441,2.001 -0.57,0.16 -1.257,0.123 -1.91,-0.404 -1.979,-1.598 0.236,-5.802 5.298,-5.444 4.61,0.325 9.555,4.404 9.555,11.587 0,2.368 -0.736,5.367 -2.409,8.313 7.208,3.445 14.94,7.305 22.949,11.328 13.843,-5.778 25.638,-10.447 32.13,-12.248 4.611,-1.279 10.649,-3.11 17.56,-4.678 -3.92,-14.877 -13.715,-30.015 -33.244,-39.524 m -44.887,44.869 c -3.6,-1.68 -7.043,-3.232 -10.293,-4.623 -10.046,-4.294 -21.022,-5.517 -31.169,-3.821 0.718,2.172 1.754,4.192 3.104,6.062 3.08,3.989 8.596,8.586 17.931,9.368 10.325,0.863 16.73,-3.066 20.427,-6.986 m -61.702,-0.108 c -1.576,1.159 -3.026,2.397 -4.347,3.706 10.214,2.564 18.951,5.614 24.309,7.645 7.941,3.009 20.869,8.687 35.225,15.217 10.937,-4.681 22.148,-9.506 32.384,-13.802 -7.509,-3.768 -14.754,-7.375 -21.525,-10.608 -3.779,5.301 -10.833,9.952 -22.399,9.747 -16.336,-0.26 -23.921,-13.208 -25.635,-19.817 -6.585,1.398 -12.756,4.046 -18.012,7.912 m -6.008,5.474 c -5.847,6.651 -8.592,14.906 -7.847,23.911 1.974,0.162 4.027,0.41 6.161,0.747 11.482,1.817 23.159,5.86 31.928,9.429 3.261,-1.308 6.642,-2.696 10.166,-4.171 5.768,-2.414 11.898,-5.022 18.152,-7.695 -13.609,-6.173 -25.767,-11.494 -33.341,-14.365 -5.507,-2.087 -14.619,-5.261 -25.219,-7.856 m -17.257,-3.319 c -17.654,-2.377 -31.238,-0.782 -40.373,4.742 -9.748,5.894 -15.202,16.091 -14.232,26.611 0.438,4.753 2.144,9.095 4.882,12.743 1.595,1.728 9.854,9.883 24.623,11.104 -0.917,-6.526 0.798,-13.057 5.081,-18.556 4.998,-6.414 13.108,-9.638 24.182,-9.638 1.011,0 2.049,0.03 3.109,0.085 -0.458,-6.147 0.61,-11.964 3.178,-17.305 1.203,-2.498 2.709,-4.841 4.503,-7.016 -4.783,-1.109 -9.829,-2.08 -14.953,-2.77 m -22.937,55.325 c 2.127,0.072 4.376,0.003 6.75,-0.249 10.321,-1.095 20.157,-3.035 30.814,-6.085 -3.879,-6.284 -6.278,-12.93 -7.139,-19.771 -12.111,-0.677 -20.786,2.244 -25.837,8.726 -4.004,5.139 -5.556,11.269 -4.588,17.379 m 2.51,7.513 c 3.107,4.943 11.903,15.417 31.019,16.32 10.05,0.475 20.72,-1.588 30.54,-4.515 -9.087,-5.233 -16.384,-11.526 -21.499,-17.385 -1.877,0.538 -3.627,1.003 -5.221,1.379 -9.193,2.168 -22.64,4.266 -35.429,2.989 0.185,0.406 0.382,0.809 0.59,1.212 m 65.071,-24.295 c -8.378,-3.303 -18.985,-6.827 -29.403,-8.475 -1.938,-0.306 -3.803,-0.536 -5.599,-0.694 0.982,7.223 3.698,13.577 7.119,18.994 8.512,-2.527 17.592,-5.759 27.883,-9.825 m 29.972,22.731 c 2.114,-0.941 5.682,-2.57 10.159,-4.615 -10.166,-4.75 -20.336,-9.462 -27.638,-12.758 -11.716,4.642 -24.409,9.361 -34.369,12.423 1.934,2.184 3.908,4.126 5.79,5.817 4.276,3.447 10.183,7.42 17.811,10.838 12.457,-4.191 22.988,-9.362 28.247,-11.705 m 42.176,-19.103 c 10.729,-4.768 21.013,-9.2 27.68,-11.724 1.231,-0.466 2.469,-0.927 3.712,-1.382 -8.469,-3.984 -17.542,-8.506 -26.613,-13.06 -14.752,5.684 -25.671,11.021 -31.351,13.798 8.944,4.124 18.059,8.378 26.572,12.368 m -29.043,-11.176 c -5.022,2.354 -15.75,6.967 -27.88,11.819 7.543,3.423 17.564,8.076 27.434,12.689 7.649,-3.493 17.366,-7.926 26.931,-12.194 -8.538,-3.998 -17.62,-8.233 -26.485,-12.314 m -0.225,50.113 c 12.583,-0.133 23.616,-3.033 33.106,-7.585 -4.334,-2.051 -14.122,-6.677 -25.212,-11.882 -4.394,1.955 -7.167,3.19 -7.167,3.19 0,0 -13.124,6.773 -30.421,12.357 8.408,2.457 18.282,4.039 29.694,3.92 m 264.307,168.374 -1.64,3.659 c 0,0 -12.491,-5.929 -28.007,-0.884 -15.518,5.047 -54.499,24.601 -70.27,-18.291 l 1.641,-0.885 c 0,0 5.677,12.238 18.924,9.21 13.246,-3.028 29.268,-10.219 39.613,-9.21 -5.047,-4.541 -12.616,-12.236 -12.742,-27.248 -0.126,-15.014 0.126,-134.484 0.126,-134.484 0,0 1.136,-22.455 -10.976,-23.97 C 132.899,-11.171 124.447,2.075 120.031,7.752 115.615,13.431 97.197,46.735 59.477,41.563 30.128,37.5 -2.081,24.773 -13.529,19.964 c -12.25,5.672 -26.732,9.019 -42.904,9.385 -13.642,0.393 -25.943,-2.489 -36.476,-7.01 -18.656,5.223 -40.402,8.078 -55.7,0.078 -0.366,-0.189 -0.723,-0.379 -1.075,-0.572 -0.073,-0.035 -0.148,-0.069 -0.222,-0.104 -6.711,-3.257 -12.216,-8.31 -15.501,-14.234 -0.167,-0.302 -0.325,-0.603 -0.479,-0.905 -0.264,-0.512 -0.489,-0.99 -0.68,-1.43 -0.127,-0.289 -0.25,-0.578 -0.367,-0.868 -14.379,-1.642 -26.882,-9.279 -31.66,-22.704 -0.801,-2.25 -1.381,-4.611 -1.61,-7.09 -0.496,-5.383 0.565,-10.829 3.07,-15.75 2.649,-5.203 6.858,-9.654 12.175,-12.866 6.73,-4.071 15.683,-6.114 26.728,-6.113 4.641,0 9.654,0.361 15.022,1.083 5.591,0.753 11.088,1.837 16.257,3.069 1.629,-1.733 3.452,-3.347 5.472,-4.83 5.393,-3.967 11.83,-6.773 18.862,-8.256 -0.917,-3.985 -0.931,-8.368 -0.039,-13.066 1.147,-6.034 4.029,-11.411 8.562,-15.984 4.104,-4.136 9.473,-7.539 15.962,-10.11 5.986,-2.375 12.656,-3.948 19.822,-4.676 2.877,-0.293 5.799,-0.439 8.707,-0.439 3.955,0 7.881,0.27 11.638,0.807 9.098,1.3 17.359,3.499 24.696,6.567 1.944,0.639 15.431,5.655 26.135,18.005 4.988,5.755 9.631,13.121 12.67,22.399 14.063,-2.6 30.757,-3.413 46.199,3.263 9.002,3.991 13.814,9.578 16.371,14.408 0.311,0.514 0.602,1.037 0.868,1.572 4.582,9.253 0.615,18.296 0.39,18.793 -3.442,7.944 -10.032,12.939 -19.586,14.854 0.07,0.742 0.097,1.479 0.081,2.203 l 0,0.076 c -10e-4,0.026 -10e-4,0.053 -0.002,0.082 C 69.81,-7.143 68.872,-3.426 66.336,0.604 60.692,9.578 48.317,11.04 38.931,10.687 29.475,10.329 18.44,7.897 9.362,4.235 c -5.816,5.792 -12.8,10.764 -20.787,14.719 6.455,2.708 27.042,11.065 41.759,13.903 17.663,3.406 33.179,2.398 46.3,-13.625 12.236,-16.147 28.889,-45.541 59.039,-43.019 30.153,2.523 47.058,30.909 49.202,45.921 2.145,15.013 1.262,23.214 1.262,23.214 l 0.125,109.755 c 0,0 -2.144,25.61 22.079,37.342" /></g><g
           transform="translate(579.9912,221.293)"
           id="g44"><path
             id="path46"
             style="fill:#231f20;fill-opacity:1;fill-rule:nonzero;stroke:none"
             d="m 0,0 c 0.139,17.242 0.139,63.592 0.966,68.007 l -2.208,3.587 c 0,0 -17.38,-7.035 -35.313,-6.76 l 0.276,-4.966 c 0,0 9.655,1.654 9.931,-7.45 0.25,-8.261 0.274,-51.954 0.276,-59.979 -4.709,-2.538 -12.261,-5.523 -20.415,-4.441 -10.07,1.381 -11.174,10.898 -11.174,10.898 0,0 -0.276,59.868 1.104,67.456 -1.103,2.482 -2.345,3.861 -2.345,3.861 0,0 -20.141,-5.793 -37.244,-6.208 l -0.139,-4.689 c 0,0 12.002,1.379 12.277,-8.415 0.277,-9.794 0.138,-54.764 0.138,-54.764 0,0 -1.518,-17.106 22.898,-21.106 14.459,-1.334 29.096,5.133 36.538,10.797 l -0.121,-10.797 c 0,0 18.072,4.829 37.108,4.415 l 0.276,5.379 c 0,0 -12.967,-2.069 -12.829,15.175" /></g><g
           transform="translate(688.3672,216.7441)"
           id="g48"><path
             id="path50"
             style="fill:#231f20;fill-opacity:1;fill-rule:nonzero;stroke:none"
             d="m 0,0 c 0,11.073 -0.082,57.969 -0.082,57.969 0,0 0.082,11.56 0.978,16.12 -2.28,3.093 -2.85,3.907 -2.85,3.907 0,0 -18.563,-7.002 -36.067,-7.164 l 0,-5.211 c 0,0 12.375,1.629 12.457,-12.863 0.082,-14.492 0,-53.735 0,-53.735 0,0 -0.246,-8.629 -11.562,-9.525 l -0.08,-5.21 48.604,-0.407 0.163,5.048 c 0,0 -11.561,0 -11.561,11.071" /></g><g
           transform="translate(382.7617,294.8828)"
           id="g52"><path
             id="path54"
             style="fill:#231f20;fill-opacity:1;fill-rule:nonzero;stroke:none"
             d="m 0,0 c -13.798,-0.166 -26.115,-5.848 -35.32,-11.604 0.035,1.456 0.183,4.833 0.811,7.496 l -2.26,3.287 c 0,0 -15.201,-5.341 -37.18,-7.807 l 0.205,-5.135 c 0,0 12.325,1.438 13.352,-12.735 1.028,-14.174 -0.205,-50.942 -0.205,-50.942 0,0 2.465,-8.833 -11.709,-11.914 l 0.206,-5.135 47.656,0 0.204,4.929 c 0,0 -9.037,1.848 -9.654,9.655 -0.517,6.553 -0.6,47.293 -0.613,60.18 4.505,2.827 16.343,9.256 25.468,5.346 7.19,-3.902 6.369,-11.503 6.369,-11.503 l 0.204,-55.051 c 0,0 0,-5.958 -9.86,-8.01 l 0,-4.931 48.067,-0.204 0,4.724 c 0,0 -10.476,0.616 -11.092,12.53 -0.617,11.914 -0.411,58.337 -0.411,58.337 0,0 0,17.255 -24.238,18.487" /></g><g
           transform="translate(251.624,286.1699)"
           id="g56"><path
             id="path58"
             style="fill:#231f20;fill-opacity:1;fill-rule:nonzero;stroke:none"
             d="M 0,0 C 14.379,1.912 22.644,-14.813 25.35,-36.685 28.057,-58.554 24.733,-76.739 9.802,-79.196 -3.823,-81.438 -13.025,-64.51 -15.732,-42.641 -18.44,-20.771 -13.268,-1.763 0,0 m 4.809,-87.215 c 29.992,0.204 48.682,21.475 48.682,47.964 0,26.489 -19.514,47.758 -48.682,47.964 -28.142,0.198 -47.656,-22.193 -47.656,-48.683 0,-26.49 17.255,-47.451 47.656,-47.245" /></g><g
           transform="translate(755.4531,205.3457)"
           id="g60"><path
             id="path62"
             style="fill:#231f20;fill-opacity:1;fill-rule:nonzero;stroke:none"
             d="m 0,0 c -13.625,-2.242 -22.829,14.686 -25.535,36.557 -2.707,21.869 2.466,40.876 15.733,42.639 C 4.576,81.109 12.841,64.382 15.547,42.513 18.254,20.643 14.932,2.457 0,0 m -4.993,87.908 c -28.143,0.199 -47.655,-22.193 -47.655,-48.682 0,-26.49 17.253,-47.451 47.655,-47.245 29.992,0.204 48.682,21.474 48.682,47.963 0,26.491 -19.514,47.758 -48.682,47.964" /></g></g></g></g></svg>