<?xml version="1.0" encoding="UTF-8" standalone="no"?>
<svg
   xmlns:dc="http://purl.org/dc/elements/1.1/"
   xmlns:cc="http://creativecommons.org/ns#"
   xmlns:rdf="http://www.w3.org/1999/02/22-rdf-syntax-ns#"
   xmlns:svg="http://www.w3.org/2000/svg"
   xmlns="http://www.w3.org/2000/svg"
   viewBox="0 0 284.83212 66.202752"
   height="66.202751"
   width="284.83212"
   xml:space="preserve"
   version="1.1"
   id="svg2"><metadata
     id="metadata8"><rdf:RDF><cc:Work
         rdf:about=""><dc:format>image/svg+xml</dc:format><dc:type
           rdf:resource="http://purl.org/dc/dcmitype/StillImage" /><dc:title></dc:title></cc:Work></rdf:RDF></metadata><defs
     id="defs6"><clipPath
       id="clipPath20"
       clipPathUnits="userSpaceOnUse"><path
         id="path22"
         d="m 0,283.465 288.732,0 L 288.732,0 0,0 0,283.465 Z" /></clipPath></defs><g
     transform="matrix(1.25,0,0,-1.25,-34.749125,134.895)"
     id="g10"><g
       transform="translate(27.7993,107.2227)"
       id="g140"><path
         id="path142"
         style="fill:#231f20;fill-opacity:1;fill-rule:nonzero;stroke:none"
         d="m 0,0 6.178,0 0,-14.482 9.576,0 0,-5.328 L 0,-19.81 0,0 Z" /></g><g
       transform="translate(55.1035,91.7129)"
       id="g144"><path
         id="path146"
         style="fill:#231f20;fill-opacity:1;fill-rule:nonzero;stroke:none"
         d="m 0,0 c 2.52,0 4.118,1.582 4.118,5.605 0,4.024 -1.598,5.604 -4.118,5.604 -2.52,0 -4.12,-1.58 -4.12,-5.604 C -4.12,1.582 -2.52,0 0,0 M 0,16.203 C 3.747,16.203 10.692,15.87 10.692,5.605 10.692,-4.659 3.747,-4.993 0,-4.993 c -3.747,0 -10.692,0.334 -10.692,10.598 0,10.265 6.945,10.598 10.692,10.598" /></g><g
       transform="translate(88.127,95.126)"
       id="g148"><path
         id="path150"
         style="fill:#231f20;fill-opacity:1;fill-rule:nonzero;stroke:none"
         d="m 0,0 c -0.394,-2.607 -1.096,-4.716 -2.629,-6.159 -1.512,-1.443 -3.878,-2.247 -7.647,-2.247 -3.747,0 -10.693,0.334 -10.693,10.598 0,10.265 6.946,10.598 10.693,10.598 3.725,0 9.466,-0.61 10.276,-8.462 l -6.968,0 c -0.175,1.415 -0.921,3.468 -3.308,3.468 -2.52,0 -4.119,-1.58 -4.119,-5.604 0,-4.023 1.556,-5.605 3.813,-5.605 1.949,0 3.111,1.027 3.614,3.413 L 0,0 Z" /></g><g
       transform="translate(98.5601,101.2295)"
       id="g152"><path
         id="path154"
         style="fill:#231f20;fill-opacity:1;fill-rule:nonzero;stroke:none"
         d="m 0,0 -0.043,0 -1.841,-6.714 3.725,0 L 0,0 Z m -3.812,5.993 7.581,0 6.661,-19.809 -6.573,0 -0.658,2.275 -6.441,0 -0.657,-2.275 -6.574,0 6.661,19.809 z" /></g><g
       transform="translate(109.7822,107.2227)"
       id="g156"><path
         id="path158"
         style="fill:#231f20;fill-opacity:1;fill-rule:nonzero;stroke:none"
         d="m 0,0 6.179,0 0,-14.482 9.575,0 0,-5.328 L 0,-19.81 0,0 Z" /></g><g
       transform="translate(140.2876,102.2285)"
       id="g160"><path
         id="path162"
         style="fill:#231f20;fill-opacity:1;fill-rule:nonzero;stroke:none"
         d="m 0,0 -5.72,0 0,4.994 17.617,0 0,-4.994 -5.719,0 0,-14.815 -6.178,0 L 0,0 Z" /></g><g
       transform="translate(159.791,98.5117)"
       id="g164"><path
         id="path166"
         style="fill:#231f20;fill-opacity:1;fill-rule:nonzero;stroke:none"
         d="m 0,0 4.382,0 c 1.205,0 1.709,0.609 1.709,1.858 0,1.498 -0.767,1.859 -1.797,1.859 L 0,3.717 0,0 Z m -6.179,8.711 13.014,0 c 1.774,0 2.849,-0.194 3.704,-0.723 1.16,-0.719 2.125,-2.634 2.125,-4.799 0,-1.859 -0.614,-3.856 -2.411,-4.521 l 0,-0.055 c 0.922,-0.333 1.666,-1.333 1.775,-3.052 l 0.262,-4.329 c 0.067,-0.887 0.374,-1.719 0.769,-2.331 l -6.75,0 c -0.218,0.584 -0.218,1.444 -0.328,3.747 -0.066,1.469 -0.461,2.358 -1.599,2.358 l -4.382,0 0,-6.105 -6.179,0 0,19.81 z" /></g><g
       transform="translate(174.6943,107.2227)"
       id="g168"><path
         id="path170"
         style="fill:#231f20;fill-opacity:1;fill-rule:nonzero;stroke:none"
         d="m 0,0 16.63,0 0,-4.826 -10.453,0 0,-2.664 9.707,0 0,-4.828 -9.707,0 0,-2.663 10.453,0 0,-4.829 L 0,-19.81 0,0 Z" /></g><g
       transform="translate(193.3652,107.2227)"
       id="g172"><path
         id="path174"
         style="fill:#231f20;fill-opacity:1;fill-rule:nonzero;stroke:none"
         d="m 0,0 7.054,0 6.267,-10.986 0.067,0 0,10.986 5.915,0 0,-19.81 -6.771,0 -6.574,11.099 -0.043,0 0,-11.099 L 0,-19.81 0,0 Z" /></g><g
       transform="translate(221.874,92.4082)"
       id="g176"><path
         id="path178"
         style="fill:#231f20;fill-opacity:1;fill-rule:nonzero;stroke:none"
         d="m 0,0 3.55,0 c 2.826,0 3.967,1.774 3.967,4.91 0,3.135 -1.141,4.91 -3.967,4.91 L 0,9.82 0,0 Z m -6.179,14.814 12.031,0 c 5.301,0 8.106,-2.607 8.106,-9.904 0,-6.964 -2.783,-9.905 -7.976,-9.905 l -12.161,0 0,19.809 z" /></g><g
       transform="translate(242.54,92.9902)"
       id="g180"><path
         id="path182"
         style="fill:#231f20;fill-opacity:1;fill-rule:nonzero;stroke:none"
         d="m 0,0 -6.944,14.232 7.053,0 2.981,-7.768 2.98,7.768 7.055,0 L 6.18,0 6.18,-5.577 0,-5.577 0,0 Z" /></g><g
       transform="translate(97.5762,76.8057)"
       id="g184"><path
         id="path186"
         style="fill:#231f20;fill-opacity:1;fill-rule:nonzero;stroke:none"
         d="m 0,0 0,-1.484 -4.399,0 0,-2.344 4.177,0 0,-1.541 -4.197,0 0,-3.938 -1.692,0 0,9.307 L 0,0 Z" /></g><g
       transform="translate(105.0269,74.333)"
       id="g188"><path
         id="path190"
         style="fill:#231f20;fill-opacity:1;fill-rule:nonzero;stroke:none"
         d="m 0,0 0,-6.834 -1.348,0 -0.207,0.873 c -0.786,-0.582 -1.618,-0.873 -2.5,-0.873 -1.396,0 -2.095,0.828 -2.095,2.48 l 0,4.354 1.725,0 0,-4.309 c 0,-0.754 0.329,-1.132 0.988,-1.132 0.56,0 1.13,0.223 1.712,0.67 L -1.725,0 0,0 Z" /></g><g
       transform="translate(106.6533,67.499)"
       id="g192"><path
         id="path194"
         style="fill:#231f20;fill-opacity:1;fill-rule:nonzero;stroke:none"
         d="m 0,0 0,6.834 1.333,0 0.216,-0.873 c 0.599,0.582 1.233,0.873 1.9,0.873 l 0,-1.394 C 2.807,5.44 2.232,5.174 1.725,4.641 L 1.725,0 0,0 Z" /></g><g
       transform="translate(111.0786,67.499)"
       id="g196"><path
         id="path198"
         style="fill:#231f20;fill-opacity:1;fill-rule:nonzero;stroke:none"
         d="m 0,0 0,6.834 1.333,0 0.216,-1.003 C 2.204,6.5 2.95,6.834 3.787,6.834 5.405,6.834 6.214,5.992 6.214,4.309 L 6.214,0 4.49,0 l 0,4.309 C 4.49,5.063 4.115,5.44 3.364,5.44 2.804,5.44 2.258,5.217 1.725,4.769 L 1.725,0 0,0 Z" /></g><path
       id="path200"
       style="fill:#231f20;fill-opacity:1;fill-rule:nonzero;stroke:none"
       d="m 120.644,67.499 -1.725,0 0,6.834 1.725,0 0,-6.834 z m 0,7.939 -1.725,0 0,1.367 1.725,0 0,-1.367 z" /><g
       transform="translate(122.1743,75.4385)"
       id="g202"><path
         id="path204"
         style="fill:#231f20;fill-opacity:1;fill-rule:nonzero;stroke:none"
         d="m 0,0 1.275,0 0.26,-1.105 1.718,0 0,-1.368 -1.53,0 0,-3.144 c 0,-0.637 0.276,-0.956 0.828,-0.956 l 0.702,0 0,-1.366 -1.536,0 C 0.572,-7.939 0,-7.325 0,-6.098 L 0,0 Z" /></g><g
       transform="translate(132.748,74.333)"
       id="g206"><path
         id="path208"
         style="fill:#231f20;fill-opacity:1;fill-rule:nonzero;stroke:none"
         d="m 0,0 0,-6.834 -1.347,0 -0.207,0.873 c -0.786,-0.582 -1.618,-0.873 -2.5,-0.873 -1.396,0 -2.094,0.828 -2.094,2.48 l 0,4.354 1.723,0 0,-4.309 c 0,-0.754 0.33,-1.132 0.989,-1.132 0.56,0 1.13,0.223 1.713,0.67 L -1.723,0 0,0 Z" /></g><g
       transform="translate(134.3755,67.499)"
       id="g210"><path
         id="path212"
         style="fill:#231f20;fill-opacity:1;fill-rule:nonzero;stroke:none"
         d="m 0,0 0,6.834 1.333,0 0.215,-0.873 c 0.599,0.582 1.233,0.873 1.901,0.873 l 0,-1.394 C 2.807,5.44 2.232,5.174 1.724,4.641 L 1.724,0 0,0 Z" /></g><g
       transform="translate(140.1992,71.5078)"
       id="g214"><path
         id="path216"
         style="fill:#231f20;fill-opacity:1;fill-rule:nonzero;stroke:none"
         d="m 0,0 2.916,0 0,0.053 C 2.916,0.998 2.438,1.47 1.483,1.47 0.573,1.47 0.078,0.981 0,0 m 1.483,2.825 c 2.075,0 3.111,-1.059 3.111,-3.176 0,-0.282 -0.02,-0.565 -0.058,-0.847 l -4.536,0 c 0,-0.962 0.707,-1.445 2.122,-1.445 0.69,0 1.38,0.066 2.069,0.196 l 0,-1.366 c -0.603,-0.131 -1.337,-0.196 -2.2,-0.196 -2.477,0 -3.715,1.166 -3.715,3.494 0,2.227 1.069,3.34 3.207,3.34" /></g><g
       transform="translate(151.9258,71.5342)"
       id="g218"><path
         id="path220"
         style="fill:#231f20;fill-opacity:1;fill-rule:nonzero;stroke:none"
         d="m 0,0 c -0.897,0 -1.347,-0.436 -1.347,-1.308 0,-0.906 0.566,-1.361 1.699,-1.361 1.223,0 1.834,0.613 1.834,1.835 L 2.186,0 0,0 Z m -3.071,2.7 c 0,1.715 1.106,2.571 3.318,2.571 0.803,0 1.584,-0.108 2.344,-0.325 l 0,-1.367 c -0.76,0.217 -1.514,0.325 -2.258,0.325 -1.121,0 -1.68,-0.39 -1.68,-1.172 0,-0.91 0.445,-1.365 1.335,-1.365 l 2.198,0 0,0.923 0.932,0 0.662,-0.923 1.186,0 0,-1.367 -1.054,0 0,-0.847 c 0,-2.137 -1.189,-3.207 -3.567,-3.207 -2.277,0 -3.416,0.905 -3.416,2.713 0,0.986 0.397,1.663 1.191,2.037 -0.794,0.369 -1.191,1.037 -1.191,2.004" /></g><g
       transform="translate(164.4414,68.9961)"
       id="g222"><path
         id="path224"
         style="fill:#231f20;fill-opacity:1;fill-rule:nonzero;stroke:none"
         d="M 0,0 C 1.928,0 2.895,1.137 2.895,3.409 2.895,5.345 1.928,6.312 0,6.312 l -1.922,0 L -1.922,0 0,0 Z m -3.645,-1.497 0,9.307 3.645,0 c 3.078,0 4.618,-1.467 4.618,-4.401 0,-3.27 -1.54,-4.906 -4.618,-4.906 l -3.645,0 z" /></g><g
       transform="translate(171.7617,71.5078)"
       id="g226"><path
         id="path228"
         style="fill:#231f20;fill-opacity:1;fill-rule:nonzero;stroke:none"
         d="m 0,0 2.915,0 0,0.053 C 2.915,0.998 2.438,1.47 1.482,1.47 0.572,1.47 0.077,0.981 0,0 m 1.482,2.825 c 2.075,0 3.111,-1.059 3.111,-3.176 0,-0.282 -0.019,-0.565 -0.058,-0.847 l -4.535,0 c 0,-0.962 0.705,-1.445 2.12,-1.445 0.689,0 1.379,0.066 2.07,0.196 l 0,-1.366 C 3.588,-3.944 2.854,-4.009 1.989,-4.009 c -2.475,0 -3.716,1.166 -3.716,3.494 0,2.227 1.072,3.34 3.209,3.34" /></g><g
       transform="translate(182.6934,67.6953)"
       id="g230"><path
         id="path232"
         style="fill:#231f20;fill-opacity:1;fill-rule:nonzero;stroke:none"
         d="m 0,0 c -0.564,-0.132 -1.15,-0.196 -1.757,-0.196 -2.43,0 -3.643,1.183 -3.643,3.547 0,2.191 1.213,3.287 3.643,3.287 0.607,0 1.193,-0.067 1.757,-0.196 L 0,5.075 c -0.564,0.131 -1.107,0.196 -1.629,0.196 -1.365,0 -2.049,-0.64 -2.049,-1.92 0,-1.454 0.684,-2.181 2.049,-2.181 0.522,0 1.065,0.065 1.629,0.195 L 0,0 Z" /></g><g
       transform="translate(186.8906,68.8008)"
       id="g234"><path
         id="path236"
         style="fill:#231f20;fill-opacity:1;fill-rule:nonzero;stroke:none"
         d="M 0,0 C 1.105,0 1.658,0.713 1.658,2.142 1.658,3.534 1.105,4.23 0,4.23 -1.107,4.23 -1.66,3.534 -1.66,2.142 -1.66,0.713 -1.107,0 0,0 m -3.385,2.115 c 0,2.291 1.128,3.437 3.385,3.437 2.256,0 3.383,-1.146 3.383,-3.437 0,-2.286 -1.127,-3.429 -3.383,-3.429 -2.248,0 -3.375,1.143 -3.385,3.429" /></g><g
       transform="translate(122.4517,54.9658)"
       id="g238"><path
         id="path240"
         style="fill:#231f20;fill-opacity:1;fill-rule:nonzero;stroke:none"
         d="m 0,0 0,9.251 4.211,0 c 1.892,0 2.838,-0.827 2.838,-2.48 0,-1.12 -0.736,-2.045 -2.21,-2.779 l 2.935,-4.004 -2.163,0 -2.818,4.035 0,0.784 c 1.641,0.281 2.461,0.918 2.461,1.911 0,0.681 -0.384,1.024 -1.153,1.024 L 1.75,7.742 1.75,0 0,0 Z" /></g><g
       transform="translate(132.2661,58.9434)"
       id="g242"><path
         id="path244"
         style="fill:#231f20;fill-opacity:1;fill-rule:nonzero;stroke:none"
         d="m 0,0 2.903,0 0,0.053 c 0,0.94 -0.476,1.413 -1.425,1.413 C 0.571,1.466 0.078,0.976 0,0 m 1.478,2.813 c 2.064,0 3.096,-1.055 3.096,-3.162 0,-0.282 -0.019,-0.562 -0.058,-0.841 L 0,-1.19 c 0,-0.959 0.704,-1.44 2.112,-1.44 0.687,0 1.374,0.066 2.06,0.195 l 0,-1.361 c -0.6,-0.129 -1.331,-0.193 -2.189,-0.193 -2.466,0 -3.699,1.158 -3.699,3.478 0,2.215 1.064,3.324 3.194,3.324" /></g><g
       transform="translate(138.1294,54.9541)"
       id="g246"><path
         id="path248"
         style="fill:#231f20;fill-opacity:1;fill-rule:nonzero;stroke:none"
         d="m 0,0 0,6.802 1.328,0 0.214,-0.999 c 0.651,0.666 1.395,0.999 2.228,0.999 1.611,0 2.416,-0.839 2.416,-2.515 L 6.186,0 4.47,0 l 0,4.287 C 4.47,5.039 4.096,5.415 3.349,5.415 2.792,5.415 2.248,5.192 1.716,4.748 L 1.716,0 0,0 Z" /></g><g
       transform="translate(145.8379,62.8574)"
       id="g250"><path
         id="path252"
         style="fill:#231f20;fill-opacity:1;fill-rule:nonzero;stroke:none"
         d="m 0,0 1.271,0 0.258,-1.102 1.71,0 0,-1.361 -1.522,0 0,-3.128 c 0,-0.635 0.275,-0.953 0.824,-0.953 l 0.698,0 0,-1.359 -1.529,0 C 0.571,-7.903 0,-7.293 0,-6.069 L 0,0 Z" /></g><g
       transform="translate(152.8735,57.9336)"
       id="g254"><path
         id="path256"
         style="fill:#231f20;fill-opacity:1;fill-rule:nonzero;stroke:none"
         d="m 0,0 c -0.824,0 -1.237,-0.281 -1.237,-0.842 0,-0.604 0.346,-0.906 1.036,-0.906 0.571,0 1.099,0.176 1.587,0.529 l 0,1.089 C 0.955,-0.044 0.493,0 0,0 m -2.953,-0.862 c 0,1.351 0.984,2.028 2.953,2.028 0.462,0 0.925,-0.044 1.386,-0.13 l 0,0.512 c 0,0.608 -0.438,0.913 -1.315,0.913 -0.742,0 -1.568,-0.107 -2.474,-0.324 l 0,1.361 c 0.906,0.216 1.732,0.324 2.474,0.324 2.022,0 3.033,-0.747 3.033,-2.242 l 0,-4.559 -0.999,0 -0.607,0.609 c -0.593,-0.407 -1.246,-0.609 -1.957,-0.609 -1.663,0 -2.494,0.705 -2.494,2.117" /></g><path
       id="path258"
       style="fill:#231f20;fill-opacity:1;fill-rule:nonzero;stroke:none"
       d="m 159.312,54.954 -1.717,0 0,9.263 1.717,0 0,-9.263 z" /></g></svg>