<?xml version="1.0" encoding="UTF-8" standalone="no"?>
<svg
   xmlns:dc="http://purl.org/dc/elements/1.1/"
   xmlns:cc="http://creativecommons.org/ns#"
   xmlns:rdf="http://www.w3.org/1999/02/22-rdf-syntax-ns#"
   xmlns:svg="http://www.w3.org/2000/svg"
   xmlns="http://www.w3.org/2000/svg"
   viewBox="0 0 214.68813 397.60001"
   height="397.60001"
   width="214.68813"
   xml:space="preserve"
   version="1.1"
   id="svg2"><metadata
     id="metadata8"><rdf:RDF><cc:Work
         rdf:about=""><dc:format>image/svg+xml</dc:format><dc:type
           rdf:resource="http://purl.org/dc/dcmitype/StillImage" /><dc:title></dc:title></cc:Work></rdf:RDF></metadata><defs
     id="defs6"><clipPath
       id="clipPath16"
       clipPathUnits="userSpaceOnUse"><path
         id="path18"
         d="M 0,612 792,612 792,0 0,0 0,612 Z" /></clipPath></defs><g
     transform="matrix(1.25,0,0,-1.25,-387.39187,581.88675)"
     id="g10"><g
       id="g12"><g
         clip-path="url(#clipPath16)"
         id="g14"><g
           transform="translate(336.4609,445.6602)"
           id="g20"><path
             id="path22"
             style="fill:#414142;fill-opacity:1;fill-rule:nonzero;stroke:none"
             d="m 0,0 0,-21.327 2.157,0 c 10.283,0 15.422,3.554 15.422,10.667 C 17.579,-3.554 12.44,0 2.157,0 L 0,0 Z m 22.007,-33.466 26.881,-35.051 -27.674,0 -20.987,32.9 -0.227,0 0,-32.9 -22.232,0 0,85.536 33.232,0 c 8.925,0 16.114,-2.195 21.561,-6.585 5.44,-4.384 8.163,-10.962 8.163,-19.736 0,-6.126 -1.648,-11.422 -4.931,-15.881 -3.295,-4.465 -7.887,-7.22 -13.786,-8.283" /></g><g
           transform="translate(451.375,437.1504)"
           id="g24"><path
             id="path26"
             style="fill:#414142;fill-opacity:1;fill-rule:nonzero;stroke:none"
             d="m 0,0 c -4.768,4.541 -10.44,6.806 -17.02,6.806 -6.578,0 -12.251,-2.265 -17.019,-6.806 -4.761,-4.534 -7.145,-9.792 -7.145,-15.767 0,-7.258 2.346,-13.327 7.032,-18.208 4.692,-4.874 10.403,-7.315 17.132,-7.315 6.73,0 12.441,2.441 17.133,7.315 4.686,4.881 7.032,10.95 7.032,18.208 C 7.145,-9.792 4.761,-4.534 0,0 m -40.164,22.862 c 7.188,3.667 14.905,5.497 23.144,5.497 8.24,0 15.957,-1.83 23.145,-5.497 7.183,-3.673 13.007,-8.905 17.466,-15.711 4.46,-6.811 6.698,-14.409 6.698,-22.805 0,-13.837 -4.446,-25.164 -13.333,-33.975 -8.888,-8.811 -20.214,-13.214 -33.976,-13.214 -13.761,0 -25.087,4.403 -33.975,13.214 -8.887,8.811 -13.327,20.138 -13.327,33.975 0,8.396 2.233,15.994 6.692,22.805 4.459,6.806 10.283,12.038 17.466,15.711" /></g><g
           transform="translate(375.3735,347.1997)"
           id="g28"><path
             id="path30"
             style="fill:#414142;fill-opacity:1;fill-rule:nonzero;stroke:none"
             d="m 0,0 0,-26.661 c -2.271,3.026 -5.125,5.353 -8.566,6.982 -3.447,1.622 -7.095,2.433 -10.95,2.433 -6.73,0 -12.214,-2.263 -16.446,-6.804 -4.24,-4.535 -6.353,-10.17 -6.353,-16.9 0,-6.811 2.139,-12.383 6.409,-16.736 4.271,-4.346 9.849,-6.522 16.736,-6.522 3.623,0 7.145,0.811 10.541,2.44 3.409,1.623 6.277,3.837 8.629,6.636 l 0,-26.656 c -8.629,-2.647 -15.17,-3.974 -19.629,-3.974 -12.176,0 -22.874,4.201 -32.101,12.592 -9.151,8.245 -13.73,19.018 -13.73,32.333 0,12.252 4.202,22.686 12.591,31.309 4.24,4.308 9.233,7.692 14.982,10.151 5.742,2.459 11.604,3.685 17.579,3.685 C -13.73,4.308 -6.962,2.875 0,0" /></g><g
           transform="translate(451.1045,323.7153)"
           id="g32"><path
             id="path34"
             style="fill:#414142;fill-opacity:1;fill-rule:nonzero;stroke:none"
             d="m 0,0 c -4.762,4.541 -10.435,6.805 -17.013,6.805 -6.579,0 -12.252,-2.264 -17.019,-6.805 -4.768,-4.535 -7.145,-9.792 -7.145,-15.768 0,-7.258 2.34,-13.326 7.031,-18.207 4.692,-4.875 10.403,-7.315 17.133,-7.315 6.73,0 12.44,2.44 17.125,7.315 4.686,4.881 7.038,10.949 7.038,18.207 C 7.15,-9.792 4.761,-4.535 0,0 m -40.158,22.862 c 7.182,3.667 14.899,5.497 23.145,5.497 8.239,0 15.95,-1.83 23.139,-5.497 7.188,-3.673 13.006,-8.906 17.465,-15.711 4.466,-6.812 6.698,-14.409 6.698,-22.805 0,-13.837 -4.446,-25.164 -13.327,-33.975 -8.893,-8.812 -20.214,-13.214 -33.975,-13.214 -13.767,0 -25.095,4.402 -33.975,13.214 -8.894,8.811 -13.334,20.138 -13.334,33.975 0,8.396 2.233,15.993 6.692,22.805 4.465,6.805 10.289,12.038 17.472,15.711" /></g><g
           transform="translate(375.3735,233.7578)"
           id="g36"><path
             id="path38"
             style="fill:#414142;fill-opacity:1;fill-rule:nonzero;stroke:none"
             d="m 0,0 0,-26.66 c -2.271,3.025 -5.125,5.351 -8.566,6.98 -3.447,1.623 -7.095,2.435 -10.95,2.435 -6.73,0 -12.214,-2.265 -16.446,-6.806 -4.24,-4.534 -6.353,-10.17 -6.353,-16.899 0,-6.812 2.139,-12.384 6.409,-16.736 4.271,-4.346 9.849,-6.522 16.736,-6.522 3.623,0 7.145,0.812 10.541,2.44 3.409,1.623 6.277,3.836 8.629,6.635 l 0,-26.654 c -8.629,-2.648 -15.17,-3.975 -19.629,-3.975 -12.176,0 -22.874,4.201 -32.101,12.592 -9.151,8.245 -13.73,19.019 -13.73,32.333 0,12.252 4.202,22.687 12.591,31.309 4.24,4.308 9.233,7.692 14.982,10.151 5.742,2.459 11.604,3.686 17.579,3.686 C -13.73,4.309 -6.962,2.875 0,0" /></g><g
           transform="translate(451.1045,210.2734)"
           id="g40"><path
             id="path42"
             style="fill:#414142;fill-opacity:1;fill-rule:nonzero;stroke:none"
             d="m 0,0 c -4.762,4.541 -10.435,6.805 -17.013,6.805 -6.579,0 -12.252,-2.264 -17.019,-6.805 -4.768,-4.534 -7.145,-9.793 -7.145,-15.768 0,-7.257 2.34,-13.327 7.031,-18.207 4.692,-4.875 10.403,-7.315 17.133,-7.315 6.73,0 12.44,2.44 17.125,7.315 4.686,4.88 7.038,10.95 7.038,18.207 C 7.15,-9.793 4.761,-4.534 0,0 m -40.158,22.862 c 7.182,3.667 14.899,5.497 23.145,5.497 8.239,0 15.95,-1.83 23.139,-5.497 7.188,-3.673 13.006,-8.906 17.465,-15.711 4.466,-6.811 6.698,-14.409 6.698,-22.805 0,-13.836 -4.446,-25.164 -13.327,-33.975 -8.893,-8.812 -20.214,-13.215 -33.975,-13.215 -13.767,0 -25.095,4.403 -33.975,13.215 -8.894,8.811 -13.334,20.139 -13.334,33.975 0,8.396 2.233,15.994 6.692,22.805 4.465,6.805 10.289,12.038 17.472,15.711" /></g></g></g></g></svg>