<?xml version="1.0" encoding="UTF-8" standalone="no"?>
<svg
   xmlns:dc="http://purl.org/dc/elements/1.1/"
   xmlns:cc="http://creativecommons.org/ns#"
   xmlns:rdf="http://www.w3.org/1999/02/22-rdf-syntax-ns#"
   xmlns:svg="http://www.w3.org/2000/svg"
   xmlns="http://www.w3.org/2000/svg"
   viewBox="0 0 699.87488 273.4375"
   height="273.4375"
   width="699.87488"
   xml:space="preserve"
   version="1.1"
   id="svg2"><metadata
     id="metadata8"><rdf:RDF><cc:Work
         rdf:about=""><dc:format>image/svg+xml</dc:format><dc:type
           rdf:resource="http://purl.org/dc/dcmitype/StillImage" /><dc:title></dc:title></cc:Work></rdf:RDF></metadata><defs
     id="defs6"><clipPath
       id="clipPath18"
       clipPathUnits="userSpaceOnUse"><path
         id="path20"
         d="m 0,20 1024,0 0,768 L 0,788 0,20 Z" /></clipPath><clipPath
       id="clipPath58"
       clipPathUnits="userSpaceOnUse"><path
         id="path60"
         d="M 2,3 156,3 156,18 2,18 2,3 Z" /></clipPath></defs><g
     transform="matrix(1.25,0,0,-1.25,-123.05114,612.1875)"
     id="g10"><g
       id="g12" /><g
       transform="matrix(1,0,0,-1,88.55029,444)"
       id="g26"><text
         id="text28"
         style="font-variant:normal;font-weight:500;font-size:96px;font-family:Futura;-inkscape-font-specification:Futura-Medium;writing-mode:lr-tb;fill:#000000;fill-opacity:1;fill-rule:nonzero;stroke:none"
         transform="translate(4.5,104)"><tspan
           id="tspan30"
           y="0"
           x="0 67.267197 125.0304 179.3376 246.4128 292.75201 321.04321 386.00641">CREATIVE</tspan></text>
</g><path
       id="path32"
       style="fill:#ffffff;fill-opacity:1;fill-rule:nonzero;stroke:none"
       d="m 596,290 -147,0 147,181 0,-181 z" /><g
       transform="matrix(1,0,0,-1,0,788)"
       id="g34"><path
         id="path36"
         style="fill:none;stroke:#000000;stroke-width:3;stroke-linecap:butt;stroke-linejoin:miter;stroke-miterlimit:4;stroke-dasharray:none;stroke-opacity:1"
         d="M 585.8281,315.3242 437.9999,515" /></g><g
       transform="matrix(1,0,0,-1,476.4712,362)"
       id="g38"><text
         id="text40"
         style="font-variant:normal;font-weight:normal;font-size:105px;font-family:FuturaDivineINTR;-inkscape-font-specification:FuturaDivineINTR;writing-mode:lr-tb;fill:#000000;fill-opacity:1;fill-rule:nonzero;stroke:none"
         transform="translate(4.5,91)"><tspan
           id="tspan42"
           y="0"
           x="0 39.375 112.77">LAB</tspan></text>
</g><g
       transform="matrix(1,0,0,-1,120.772,501.5)"
       id="g44"><text
         id="text46"
         style="font-variant:normal;font-weight:normal;font-size:96px;font-family:FuturaDivineINTR;-inkscape-font-specification:FuturaDivineINTR;writing-mode:lr-tb;fill:#000000;fill-opacity:1;fill-rule:nonzero;stroke:none"
         transform="translate(4.5,83)"><tspan
           id="tspan48"
           y="0"
           x="0 78.720001 143.808">GDL</tspan></text>
</g></g></svg>